<svg aria-hidden="true" style="position: absolute; width: 0; height: 0; overflow: hidden;" version="1.1" xmlns="http://www.w3.org/2000/svg" xmlns:xlink="http://www.w3.org/1999/xlink">
<defs>
<symbol id="icon-arrow_back" viewBox="0 0 24 24">
<path d="M11.672 3.891l-8.109 8.109 8.109 8.109-1.781 1.781-9.891-9.891 9.891-9.891z"></path>
</symbol>
<symbol id="icon-arrow_forward" viewBox="0 0 24 24">
<path d="M5.859 4.125l2.156-2.109 9.984 9.984-9.984 9.984-2.156-2.109 7.922-7.875z"></path>
</symbol>
<symbol id="icon-triangle-down" viewBox="0 0 20 20" fill="white">
<path d="M5 6h10l-5 9-5-9z" stroke="white"></path>
</symbol>
<symbol id="icon-instagram" viewBox="0 0 20 20">
<path d="M10 1.801c2.672 0 2.988 0.012 4.039 0.059 0.977 0.043 1.504 0.207 1.855 0.344 0.465 0.18 0.801 0.398 1.148 0.746 0.352 0.352 0.566 0.684 0.75 1.148 0.137 0.352 0.301 0.883 0.344 1.855 0.047 1.055 0.059 1.371 0.059 4.039s-0.012 2.988-0.059 4.039c-0.043 0.977-0.207 1.504-0.344 1.855-0.18 0.465-0.398 0.801-0.746 1.148-0.352 0.352-0.684 0.566-1.148 0.75-0.352 0.137-0.883 0.301-1.855 0.344-1.055 0.047-1.371 0.059-4.039 0.059s-2.988-0.012-4.039-0.059c-0.977-0.043-1.504-0.207-1.855-0.344-0.465-0.18-0.801-0.398-1.148-0.746-0.352-0.352-0.566-0.684-0.75-1.148-0.137-0.352-0.301-0.883-0.344-1.855-0.047-1.055-0.059-1.371-0.059-4.039s0.012-2.988 0.059-4.039c0.043-0.977 0.207-1.504 0.344-1.855 0.18-0.465 0.398-0.801 0.746-1.148 0.352-0.352 0.684-0.566 1.148-0.75 0.352-0.137 0.883-0.301 1.855-0.344 1.051-0.047 1.367-0.059 4.039-0.059zM10 0c-2.715 0-3.055 0.012-4.121 0.059-1.063 0.047-1.793 0.219-2.426 0.465-0.66 0.258-1.219 0.598-1.773 1.156-0.559 0.555-0.898 1.113-1.156 1.77-0.246 0.637-0.418 1.363-0.465 2.426-0.047 1.070-0.059 1.41-0.059 4.125s0.012 3.055 0.059 4.121c0.047 1.063 0.219 1.793 0.465 2.426 0.258 0.66 0.598 1.219 1.156 1.773 0.555 0.555 1.113 0.898 1.77 1.152 0.637 0.246 1.363 0.418 2.426 0.465 1.066 0.047 1.406 0.059 4.121 0.059s3.055-0.012 4.121-0.059c1.062-0.047 1.793-0.219 2.426-0.465 0.656-0.254 1.215-0.598 1.77-1.152s0.898-1.113 1.152-1.77c0.246-0.637 0.418-1.363 0.465-2.426 0.047-1.066 0.059-1.406 0.059-4.121s-0.012-3.055-0.059-4.121c-0.047-1.063-0.219-1.793-0.465-2.426-0.246-0.664-0.586-1.223-1.145-1.777-0.555-0.555-1.113-0.898-1.77-1.152-0.637-0.246-1.363-0.418-2.426-0.465-1.070-0.051-1.41-0.063-4.125-0.063v0z"></path>
<path d="M10 4.863c-2.836 0-5.137 2.301-5.137 5.137s2.301 5.137 5.137 5.137 5.137-2.301 5.137-5.137c0-2.836-2.301-5.137-5.137-5.137zM10 13.332c-1.84 0-3.332-1.492-3.332-3.332s1.492-3.332 3.332-3.332c1.84 0 3.332 1.492 3.332 3.332s-1.492 3.332-3.332 3.332z"></path>
<path d="M16.539 4.66c0 0.662-0.537 1.199-1.199 1.199s-1.199-0.537-1.199-1.199c0-0.662 0.537-1.199 1.199-1.199s1.199 0.537 1.199 1.199z"></path>
</symbol>
<symbol id="icon-facebook" viewBox="0 0 32 32">
<path d="M19 6h5v-6h-5c-3.86 0-7 3.14-7 7v3h-4v6h4v16h6v-16h5l1-6h-6v-3c0-0.542 0.458-1 1-1z"></path>
</symbol>
<symbol id="icon-instagram" viewBox="0 0 32 32">
<path d="M16 2.881c4.275 0 4.781 0.019 6.462 0.094 1.563 0.069 2.406 0.331 2.969 0.55 0.744 0.288 1.281 0.638 1.837 1.194 0.563 0.563 0.906 1.094 1.2 1.838 0.219 0.563 0.481 1.412 0.55 2.969 0.075 1.688 0.094 2.194 0.094 6.463s-0.019 4.781-0.094 6.463c-0.069 1.563-0.331 2.406-0.55 2.969-0.288 0.744-0.637 1.281-1.194 1.837-0.563 0.563-1.094 0.906-1.837 1.2-0.563 0.219-1.413 0.481-2.969 0.55-1.688 0.075-2.194 0.094-6.463 0.094s-4.781-0.019-6.463-0.094c-1.563-0.069-2.406-0.331-2.969-0.55-0.744-0.288-1.281-0.637-1.838-1.194-0.563-0.563-0.906-1.094-1.2-1.837-0.219-0.563-0.481-1.413-0.55-2.969-0.075-1.688-0.094-2.194-0.094-6.463s0.019-4.781 0.094-6.463c0.069-1.563 0.331-2.406 0.55-2.969 0.288-0.744 0.638-1.281 1.194-1.838 0.563-0.563 1.094-0.906 1.838-1.2 0.563-0.219 1.412-0.481 2.969-0.55 1.681-0.075 2.188-0.094 6.463-0.094zM16 0c-4.344 0-4.887 0.019-6.594 0.094-1.7 0.075-2.869 0.35-3.881 0.744-1.056 0.412-1.95 0.956-2.837 1.85-0.894 0.888-1.438 1.781-1.85 2.831-0.394 1.019-0.669 2.181-0.744 3.881-0.075 1.713-0.094 2.256-0.094 6.6s0.019 4.887 0.094 6.594c0.075 1.7 0.35 2.869 0.744 3.881 0.413 1.056 0.956 1.95 1.85 2.837 0.887 0.887 1.781 1.438 2.831 1.844 1.019 0.394 2.181 0.669 3.881 0.744 1.706 0.075 2.25 0.094 6.594 0.094s4.888-0.019 6.594-0.094c1.7-0.075 2.869-0.35 3.881-0.744 1.050-0.406 1.944-0.956 2.831-1.844s1.438-1.781 1.844-2.831c0.394-1.019 0.669-2.181 0.744-3.881 0.075-1.706 0.094-2.25 0.094-6.594s-0.019-4.887-0.094-6.594c-0.075-1.7-0.35-2.869-0.744-3.881-0.394-1.063-0.938-1.956-1.831-2.844-0.887-0.887-1.781-1.438-2.831-1.844-1.019-0.394-2.181-0.669-3.881-0.744-1.712-0.081-2.256-0.1-6.6-0.1v0z"></path>
<path d="M16 7.781c-4.537 0-8.219 3.681-8.219 8.219s3.681 8.219 8.219 8.219 8.219-3.681 8.219-8.219c0-4.537-3.681-8.219-8.219-8.219zM16 21.331c-2.944 0-5.331-2.387-5.331-5.331s2.387-5.331 5.331-5.331c2.944 0 5.331 2.387 5.331 5.331s-2.387 5.331-5.331 5.331z"></path>
<path d="M26.462 7.456c0 1.060-0.859 1.919-1.919 1.919s-1.919-0.859-1.919-1.919c0-1.060 0.859-1.919 1.919-1.919s1.919 0.859 1.919 1.919z"></path>
</symbol>
<symbol id="icon-twitter" viewBox="0 0 32 32">
<path d="M32 7.075c-1.175 0.525-2.444 0.875-3.769 1.031 1.356-0.813 2.394-2.1 2.887-3.631-1.269 0.75-2.675 1.3-4.169 1.594-1.2-1.275-2.906-2.069-4.794-2.069-3.625 0-6.563 2.938-6.563 6.563 0 0.512 0.056 1.012 0.169 1.494-5.456-0.275-10.294-2.888-13.531-6.862-0.563 0.969-0.887 2.1-0.887 3.3 0 2.275 1.156 4.287 2.919 5.463-1.075-0.031-2.087-0.331-2.975-0.819 0 0.025 0 0.056 0 0.081 0 3.181 2.263 5.838 5.269 6.437-0.55 0.15-1.131 0.231-1.731 0.231-0.425 0-0.831-0.044-1.237-0.119 0.838 2.606 3.263 4.506 6.131 4.563-2.25 1.762-5.075 2.813-8.156 2.813-0.531 0-1.050-0.031-1.569-0.094 2.913 1.869 6.362 2.95 10.069 2.95 12.075 0 18.681-10.006 18.681-18.681 0-0.287-0.006-0.569-0.019-0.85 1.281-0.919 2.394-2.075 3.275-3.394z"></path>
</symbol>
</defs>
</svg>
